<svg xmlns="http://www.w3.org/2000/svg" width="32" height="32" version="1"><circle cx="16" cy="17" r="14" opacity=".2" fill="#00100f"/><circle cx="16" cy="16" r="14" fill="#5294e2"/><g opacity=".2"><path d="M16 7a4 4 0 100 8 4 4 0 000-8zM16 17c-7 .004-7 4.43-7 4.43v1.8S10.292 26 16 26s7-2.77 7-2.77v-1.8s0-4.433-6.999-4.43z"/></g><g fill="#fff"><path d="M16 6a4 4 0 100 8 4 4 0 000-8zM16 16c-7 .004-7 4.43-7 4.43v1.8S10.292 25 16 25s7-2.77 7-2.77v-1.8s0-4.433-6.999-4.43z"/></g><path d="M16 2A14 14 0 002 16a14 14 0 00.021.586A14 14 0 0116 3a14 14 0 0113.979 13.414A14 14 0 0030 16 14 14 0 0016 2z" fill="#fff" opacity=".2"/></svg>